<svg xmlns="http://www.w3.org/2000/svg" viewBox="0 0 103 103"><defs><style>.cls-1{fill:none;}.cls-2{fill:#91b37f;}</style></defs><g id="Lag_2" data-name="Lag 2"><g id="Lag_1-2" data-name="Lag 1"><g id="Component_17_1" data-name="Component 17 1"><g id="Path_41" data-name="Path 41"><path class="cls-1" d="M51.5,0A51.5,51.5,0,1,1,0,51.5,51.5,51.5,0,0,1,51.5,0Z"/><path class="cls-2" d="M51.5,5A46.5,46.5,0,1,0,66.8,95.43a45.36,45.36,0,0,0,13-7,48.12,48.12,0,0,0,7.56-7.33,47.19,47.19,0,0,0,5.74-8.78,45.9,45.9,0,0,0,3.63-9.94A46.47,46.47,0,0,0,51.5,5m0-5A51.5,51.5,0,1,1,0,51.5,51.5,51.5,0,0,1,51.5,0Z"/></g><path id="Icon_awesome-hands-helping" data-name="Icon awesome-hands-helping" class="cls-2" d="M68.69,44.45H53.14v5.73a7.37,7.37,0,1,1-14.73,0h0V37.74l-6.64,4a6.52,6.52,0,0,0-3.18,5.61v4.84L20.4,56.9a3.27,3.27,0,0,0-1.2,4.46h0l8.19,14.18a3.27,3.27,0,0,0,4.47,1.2l10.58-6.1h14A6.56,6.56,0,0,0,63,64.1H64.6a3.28,3.28,0,0,0,3.27-3.27h0V54.27h.81a2.44,2.44,0,0,0,2.46-2.44h0V46.91a2.46,2.46,0,0,0-2.44-2.46ZM83.8,40.63,75.61,26.45a3.27,3.27,0,0,0-4.47-1.2L60.57,31.36H50.11a6.56,6.56,0,0,0-3.47,1l-3.42,2.14a3.26,3.26,0,0,0-1.54,2.77V50.18a4.1,4.1,0,0,0,8.19,0h0v-9H68.69a5.74,5.74,0,0,1,5.73,5.73v2.92L82.6,45.1a3.28,3.28,0,0,0,1.2-4.47Z"/></g></g></g></svg>