<svg id="Component_14_1" data-name="Component 14 – 1" xmlns="http://www.w3.org/2000/svg" width="103" height="103" viewBox="0 0 103 103">
  <g id="Ellipse_26" data-name="Ellipse 26" fill="none" stroke="#91b37f" stroke-width="5">
    <circle cx="51.5" cy="51.5" r="51.5" stroke="none"/>
    <circle cx="51.5" cy="51.5" r="49" fill="none"/>
  </g>
  <path id="Icon_awesome-recycle" data-name="Icon awesome-recycle" d="M19.485,27.651a1.69,1.69,0,0,1-2.541,1.813l-4.3-2.687L7.273,35.37a3.385,3.385,0,0,0,2.863,5.171h5.489a1.267,1.267,0,0,1,1.267,1.267v4.223A1.267,1.267,0,0,1,15.625,47.3H10.148A10.142,10.142,0,0,1,1.553,31.791L6.918,23.2l-4.3-2.687a1.69,1.69,0,0,1,.515-3.078l11.638-2.687A1.689,1.689,0,0,1,16.8,16.012l2.687,11.638ZM29.891,8.339l4.359,6.976L29.949,18a1.69,1.69,0,0,0,.515,3.078L42.1,23.768A1.689,1.689,0,0,0,44.129,22.5l2.687-11.638a1.69,1.69,0,0,0-2.541-1.813l-4.3,2.684L35.623,4.759a10.141,10.141,0,0,0-17.19,0L16.536,7.8a1.267,1.267,0,0,0,.4,1.746l3.581,2.238a1.267,1.267,0,0,0,1.746-.4l1.9-3.035A3.382,3.382,0,0,1,29.891,8.339ZM52.5,31.791l-2.9-4.652a1.267,1.267,0,0,0-1.746-.4L44.276,28.97a1.267,1.267,0,0,0-.4,1.746l2.91,4.657a3.384,3.384,0,0,1-2.865,5.169H33.785V35.476A1.69,1.69,0,0,0,30.9,34.282l-8.446,8.444a1.689,1.689,0,0,0,0,2.389L30.9,53.56a1.69,1.69,0,0,0,2.884-1.195V47.3H43.907A10.142,10.142,0,0,0,52.5,31.791Z" transform="translate(24.472 24.473)" fill="#91b37f"/>
</svg>
