<svg id="Component_17_1" data-name="Component 17 – 1" xmlns="http://www.w3.org/2000/svg" width="103" height="103" viewBox="0 0 103 103">
  <g id="Path_41" data-name="Path 41" fill="none">
    <path d="M51.5,0A51.5,51.5,0,1,1,0,51.5,51.5,51.5,0,0,1,51.5,0Z" stroke="none"/>
    <path d="M 51.5 5 C 45.2203254699707 5 39.13116455078125 6.228767395019531 33.40163421630859 8.652145385742188 C 27.86503601074219 10.99392700195312 22.89161682128906 14.34743499755859 18.61952972412109 18.61952972412109 C 14.34743499755859 22.89161682128906 10.99392700195312 27.86503601074219 8.652145385742188 33.40163421630859 C 6.228767395019531 39.13116455078125 5 45.2203254699707 5 51.5 C 5 57.7796745300293 6.228767395019531 63.86883544921875 8.652145385742188 69.59835815429688 C 10.99392700195312 75.13496398925781 14.34743499755859 80.10838317871094 18.61952972412109 84.38047027587891 C 22.89161682128906 88.65256500244141 27.86503601074219 92.00607299804688 33.40163421630859 94.34785461425781 C 39.13116455078125 96.771240234375 45.2203254699707 98 51.5 98 C 56.74689102172852 98 61.89572906494141 97.13697814941406 66.80348968505859 95.43494415283203 C 71.52291107177734 93.7982177734375 75.89205169677734 91.43399810791016 79.78996276855469 88.40769195556641 C 82.57698059082031 86.24427032470703 85.12123870849609 83.77810668945312 87.35203552246094 81.07769012451172 C 89.59034729003906 78.36821746826172 91.51961517333984 75.41481781005859 93.08625793457031 72.299560546875 C 94.67718505859375 69.13601684570312 95.90132904052734 65.79038238525391 96.72470855712891 62.35558319091797 C 97.57093048095703 58.82550811767578 98 55.17316436767578 98 51.5 C 98 45.2203254699707 96.771240234375 39.13116455078125 94.34785461425781 33.40163421630859 C 92.00607299804688 27.86503601074219 88.65256500244141 22.89161682128906 84.38047027587891 18.61952972412109 C 80.10838317871094 14.34743499755859 75.13496398925781 10.99392700195312 69.59835815429688 8.652145385742188 C 63.86883544921875 6.228767395019531 57.7796745300293 5 51.5 5 M 51.5 0 C 79.94267272949219 0 103 23.05732727050781 103 51.5 C 103 68.05363464355469 95.18992614746094 82.78312683105469 82.85588836669922 92.35738372802734 C 74.33712768554688 98.97132873535156 63.3890380859375 103 51.5 103 C 23.05732727050781 103 0 79.94267272949219 0 51.5 C 0 23.05732727050781 23.05732727050781 0 51.5 0 Z" stroke="none" fill="#91b37f"/>
  </g>
  <path id="Icon_awesome-hands-helping" data-name="Icon awesome-hands-helping" d="M49.922,19.641H34.373v5.729a7.365,7.365,0,1,1-14.731,0V12.93L13,16.919a6.533,6.533,0,0,0-3.181,5.606v4.839L1.638,32.09a3.266,3.266,0,0,0-1.2,4.47L8.624,50.739a3.275,3.275,0,0,0,4.47,1.2l10.578-6.107H37.647a6.553,6.553,0,0,0,6.547-6.547H45.83A3.27,3.27,0,0,0,49.1,36.008V29.461h.818a2.449,2.449,0,0,0,2.455-2.455V22.1A2.449,2.449,0,0,0,49.922,19.641Zm15.109-3.826L56.848,1.636a3.275,3.275,0,0,0-4.47-1.2L41.8,6.546H31.345a6.6,6.6,0,0,0-3.468.992L24.45,9.677a3.251,3.251,0,0,0-1.534,2.772v12.92a4.092,4.092,0,1,0,8.184,0v-9H49.922A5.732,5.732,0,0,1,55.651,22.1v2.916l8.184-4.726a3.277,3.277,0,0,0,1.2-4.47Z" transform="translate(18.766 24.813)" fill="#91b37f"/>
</svg>
