<svg xmlns="http://www.w3.org/2000/svg" viewBox="0 0 109.99 106.42"><defs><style>.cls-1{fill:none;stroke:#91b37f;stroke-miterlimit:10;stroke-width:6px;}.cls-2{fill:#91b37f;}</style></defs><g id="Lag_2" data-name="Lag 2"><g id="Lag_1-2" data-name="Lag 1"><g id="about_logo" data-name="about logo"><path class="cls-1" d="M13.19,73.62A49.21,49.21,0,1,1,57.74,102a48.83,48.83,0,0,1-26.47-7.75L4.49,102Z"/><path class="cls-2" d="M48.49,41s0,3,2,3c0,0,1,0,1,2,0,0,0,1-4,12s-6,14-6,18,1,10,9,10,11-6,11-9-2-3-3-3-1,1-3,1-2-1-1-4,8-19,8-19a23.86,23.86,0,0,0,3-11c0-2.94-4.08-4.2-8.25-4.13C52.91,36.94,48.49,38.45,48.49,41Z"/><circle class="cls-2" cx="63.49" cy="24" r="8"/></g></g></g></svg>