<svg xmlns="http://www.w3.org/2000/svg" viewBox="0 0 103 103"><defs><style>.cls-1,.cls-2{fill:none;}.cls-2{stroke:#91b37f;stroke-width:5px;}.cls-3{fill:#91b37f;}</style></defs><g id="Lag_2" data-name="Lag 2"><g id="Lag_1-2" data-name="Lag 1"><g id="Component_14_1" data-name="Component 14 1"><g id="Ellipse_26" data-name="Ellipse 26"><circle class="cls-1" cx="51.5" cy="51.5" r="51.5"/><circle class="cls-2" cx="51.5" cy="51.5" r="49"/></g><path id="Icon_awesome-recycle" data-name="Icon awesome-recycle" class="cls-3" d="M44,52.12a1.69,1.69,0,0,1-2.54,1.82l-4.3-2.69-5.38,8.59a3.39,3.39,0,0,0,1.09,4.66,3.32,3.32,0,0,0,1.78.51H40.1a1.26,1.26,0,0,1,1.26,1.27V70.5a1.26,1.26,0,0,1-1.26,1.27H34.62A10.14,10.14,0,0,1,26,56.26l5.36-8.59L27.09,45a1.69,1.69,0,0,1-.53-2.33,1.65,1.65,0,0,1,1.05-.75l11.63-2.69a1.69,1.69,0,0,1,2,1.26h0L44,52.12Zm10.4-19.31,4.36,7-4.3,2.68a1.69,1.69,0,0,0-.53,2.33,1.65,1.65,0,0,0,1,.75l11.63,2.69a1.69,1.69,0,0,0,2-1.26h0l2.69-11.63a1.69,1.69,0,0,0-2.54-1.82l-4.3,2.69-4.35-7a10.15,10.15,0,0,0-14-3.21,10,10,0,0,0-3.21,3.21l-1.9,3a1.27,1.27,0,0,0,.4,1.75L45,36.26a1.26,1.26,0,0,0,1.74-.4l1.9-3a3.4,3.4,0,0,1,4.67-1.07A3.35,3.35,0,0,1,54.36,32.81ZM77,56.26l-2.9-4.65a1.26,1.26,0,0,0-1.74-.4l-3.58,2.23a1.28,1.28,0,0,0-.4,1.75l2.91,4.66A3.37,3.37,0,0,1,68.39,65H58.26V60a1.69,1.69,0,0,0-2.89-1.19L46.93,67.2a1.69,1.69,0,0,0,0,2.39h0L55.37,78a1.69,1.69,0,0,0,2.39,0,1.67,1.67,0,0,0,.5-1.19V71.77H68.38A10.14,10.14,0,0,0,77,56.26Z"/></g></g></g></svg>