<svg id="Component_12_1" data-name="Component 12 – 1" xmlns="http://www.w3.org/2000/svg" width="103" height="103" viewBox="0 0 103 103">
  <g id="Ellipse_29" data-name="Ellipse 29" fill="none" stroke="#91b37f" stroke-width="5">
    <circle cx="51.5" cy="51.5" r="51.5" stroke="none"/>
    <circle cx="51.5" cy="51.5" r="49" fill="none"/>
  </g>
  <path id="Icon_material-local-offer" data-name="Icon material-local-offer" d="M50.186,26.289,28.307,4.41A4.832,4.832,0,0,0,24.879,3H7.862A4.876,4.876,0,0,0,3,7.862V24.879a4.851,4.851,0,0,0,1.434,3.452L26.313,50.21a4.832,4.832,0,0,0,3.428,1.41,4.753,4.753,0,0,0,3.428-1.434L50.186,33.169a4.753,4.753,0,0,0,1.434-3.428,4.91,4.91,0,0,0-1.434-3.452ZM11.509,15.155a3.647,3.647,0,1,1,3.647-3.647A3.642,3.642,0,0,1,11.509,15.155Z" transform="translate(24.19 25.261)" fill="#91b37f"/>
</svg>
