<svg id="Component_9_1" data-name="Component 9 – 1" xmlns="http://www.w3.org/2000/svg" width="103" height="103" viewBox="0 0 103 103">
  <g id="Ellipse_23" data-name="Ellipse 23" fill="none" stroke="#91b37f" stroke-width="5">
    <circle cx="51.5" cy="51.5" r="51.5" stroke="none"/>
    <circle cx="51.5" cy="51.5" r="49" fill="none"/>
  </g>
  <path id="Icon_feather-phone" data-name="Icon feather-phone" d="M48.58,37.068v6.85A4.567,4.567,0,0,1,43.6,48.485,45.188,45.188,0,0,1,23.9,41.475a44.526,44.526,0,0,1-13.7-13.7,45.188,45.188,0,0,1-7.01-19.8A4.567,4.567,0,0,1,7.73,3h6.85a4.567,4.567,0,0,1,4.567,3.927,29.318,29.318,0,0,0,1.6,6.416,4.567,4.567,0,0,1-1.028,4.818l-2.9,2.9a36.534,36.534,0,0,0,13.7,13.7l2.9-2.9a4.567,4.567,0,0,1,4.818-1.028,29.318,29.318,0,0,0,6.416,1.6A4.567,4.567,0,0,1,48.58,37.068Z" transform="translate(25.625 25.748)" fill="none" stroke="#91b37f" stroke-linecap="round" stroke-linejoin="round" stroke-width="5"/>
</svg>
