<svg xmlns="http://www.w3.org/2000/svg" viewBox="0 0 2219.26 540.03"><defs><style>.cls-1,.cls-2{fill:#fff;}.cls-1{fill-rule:evenodd;}</style></defs><g id="Lag_2" data-name="Lag 2"><g id="Lag_1-2" data-name="Lag 1"><path class="cls-1" d="M725.23,386.29c-.72-2.7-1.23-5.49-3.63-7.42-3.6-2.9-7.21-5.78-10.93-8.53q-11.74-8.7-23.24-17.72c-5.45-4.27-11.2-8.19-16.07-13.19s-9.8-10.2-14.69-15.31C651,318.17,645.47,312,639.88,306c-6.77-7.32-13.61-14.54-21.42-20.78-3-2.43-6.11-4.85-9-7.45-3.44-3.06-6.28-6.74-9.87-9.67a6.54,6.54,0,0,0-4.32-1.63,22.39,22.39,0,0,0-7,.92c-2.56.84-5.35.47-7.85,1.37-6.45,2.32-12.71,5.1-18.91,8-3.77,1.79-7.65,3.35-11.48,5a5.44,5.44,0,0,1,1.81-2,58.6,58.6,0,0,0,15.42-15.58,5.3,5.3,0,0,1,4.59-2.7c1.56-.06,3.14-.27,4.73-.36a3.48,3.48,0,0,0,3.24-2.09,34.34,34.34,0,0,0,1.6-3.49,3,3,0,0,1,2.66-2.34,12.53,12.53,0,0,0,4.6-1.8c10.56-7.35,15.57-18.43,19.9-29.87a67.49,67.49,0,0,0,3.93-26c-.11-3.91-.33-8-2.6-11.26a14.71,14.71,0,0,1-2.73-10.15c.67-7.32-.73-14.45-2-21.52C604,146,601.77,139.53,600,133a115.62,115.62,0,0,0-7.57-19.88c-1.79-3.67-3.29-7.49-5.17-11.11A69.81,69.81,0,0,0,583,94.41c-1.66-2.41-3.13-5-4.62-7.42-3-5-6.28-9.79-9.65-14.52-3.72-5.23-8.26-9.75-12.83-14.29a189.5,189.5,0,0,0-16-14.51,23.49,23.49,0,0,0-12.59-5.33c-1-.09-2.17.3-3.11-.54C519.61,33.65,514.63,30,510,25.91c-5.09-4.4-10.2-8.82-16-12.17-9.06-5.2-18.61-9.33-29-11.24-6.68-1.22-13.3-2.86-20.15-1.45-3.93.81-8,.89-11.75,2.69-1.13.54-2.61,1.22-2.56,2.38.07,1.33,1.77,1.41,2.91,1.74,4.58,1.32,9.33,1.6,14,2.16,1.86.23,3.56,1.07,5.44,1.38a35.6,35.6,0,0,1,13.66,5.17,70.38,70.38,0,0,1,12,10.37c1.6,1.63,3.36,3.23,4.29,5.75-6.49-2.27-12.4-5.14-18.63-7.2-9.44-3.12-18.9-6-29-5.82a5,5,0,0,1-3.86-1.2c-1.3-1.33-2.86-1.47-4.59-1.35a3.23,3.23,0,0,0-3.1,2.2c-.58,1.41,0,2.33.89,3.29,3.9,4.22,8.57,7.42,13.33,10.56,6.55,4.33,12.73,9.17,18.91,14,4.09,3.2,8,6.61,11.87,10.12s7.77,6.66,11.15,10.5c3.85,4.38,6.12,9.69,8.3,15,1.63,4,2.87,8.14,4.51,12.12a122.87,122.87,0,0,0,9.16,18.59,16.43,16.43,0,0,1,2.34,4.09,26.6,26.6,0,0,0,2.29,5.55c3.43,6,6.91,11.89,10.54,17.74a205.42,205.42,0,0,0,12.76,18c5.32,6.83,10.91,13.44,15.87,20.53a4.19,4.19,0,0,1,.85,4,12,12,0,0,0,.11,6.79c.51,1.88,1.5,3.92.9,5.91a39.94,39.94,0,0,1-2.7,6.36c-2.23,4.38-4.35,8.79-5,13.72a2.44,2.44,0,0,1-1.38,2.15c-6,3.41-12.16,6.58-17.74,10.71-.84.63-1.94,2-2.86,1.33s-.37-2.3-.14-3.49a5.21,5.21,0,0,0-4-6.21,5.15,5.15,0,0,0-2.31,0c-3.34.67-4.12.05-4.26-3.4v-1.09c0-5.05-3.7-7.38-8.25-5.22-3.21,1.52-3.6,1.35-4.68-2-.06-.2,0-.46-.11-.63-.89-1.39-.84-3.18-2-4.44-2.19-2.32-4.68-1.66-7.18-.76-5.61,2-5.61,2-6.78-3.93V199c.1-2.69-1.55-4.09-3.87-4.4-2.06-.28-4.71-.68-6.22.32-2.76,1.83-5.3,1.15-8,.79-.86-.11-1.31-.7-.62-1.29,1.74-1.5,2.33-3.78,3.63-5.36,1.47-1.79,1.32-3.25,1.16-5.07a7,7,0,0,0-5.09-6.07c-3.33-.88-6.07.63-8.58,2.39-2.72,1.9-4.42,4.93-7,7-1.2.95-2.1,1-3.15-.11-1.69-1.84-3.57-3.52-5.12-5.47s-3.41-1.92-5.44-1.35a13.49,13.49,0,0,0-2.33,1.12c-2.52,1.27-2.67,1.21-3.71-1.34-.33-.8-.67-1.6-1.06-2.38-1.44-2.84-3.9-3.56-6.7-2-2.3,1.3-3.3,1.21-5.23-.78a15.27,15.27,0,0,1-2-2.79,5.17,5.17,0,0,0-8.88-.53c-.66.86-1.41,1.64-2.12,2.46-.92,1.06-1.63,1-2.29-.29-.95-1.79-2-3.51-2.94-5.33a4.13,4.13,0,0,0-3.81-2.36,4.7,4.7,0,0,0-4.21,1.72c-2.2,2.52-2.27,2.48-3.72-.68a9.44,9.44,0,0,0-2.66-3.38c-1.8-1.48-3.61-1.33-5,.57a32.26,32.26,0,0,0-2.11,3.53c-.9,1.62-1.85,1.71-2.77.08a29.78,29.78,0,0,1-1.51-3.6c-.36-.91-.85-1.87-1.86-1.94-4-.3-5.86-.83-6.79,4-.09.43-.11.87-.21,1.29-.39,1.56-1.31,1.61-2.37.7a6,6,0,0,1-1.31-1.72c-1-1.92-2.54-2.49-4.65-2.44a4.74,4.74,0,0,0-4.32,1.91,15.92,15.92,0,0,1-1.95,1.71c-1,1-2,1-2.83-.2a4.22,4.22,0,0,0-3.12-1.64c-3.67-.58-5.67,1.17-7.07,4.3-1,2.2-1.92,2.3-3.15.29s-3.13-2.46-5.2-2.31c-1.54.12-2.84.6-3.14,2.62-.68,4.47-.79,3.93-4,1.4-4.44-3.52-7.81-1.67-9.43,3.23-.55,1.68-3.85,3.58-5.21,2.55-2.18-1.66-4.83-2.74-6.51-5a52.56,52.56,0,0,0-6.5-7c-2.54-2.4-7.25-3-9.82-1.34a8.12,8.12,0,0,0-3.15,9.71c.9,2.67,2.73,4.68,4.58,6.69.36.4,1.12.73.55,1.38s-1.28,1.12-1.9.53c-1.26-1.22-2.82-1.19-4.34-1.59a9.25,9.25,0,0,1-4.07-1.9c-1.57-1.47-2.93-1.25-4.67-.14s-1.88,3.15-2.65,4.76-1.25,3.2-3,3.34-2.53-1.62-3.25-2.85c-1-1.73-2.57-2.28-4-1.61s-3.1,2-3.15,4a15.05,15.05,0,0,1-.72,4.21c-1,3-2.7,3.3-4.7.81a12.45,12.45,0,0,0-3.07-2.33,2.84,2.84,0,0,0-2.91.12.84.84,0,0,0-.55,1,1.36,1.36,0,0,0,.1.21c.77,1.38.08,2.72-.21,4-.53,2.44-2.48,2.92-4.36,1.2a17.53,17.53,0,0,0-1.92-1.74c-2.29-1.55-4.12-.82-5,1.79a14.84,14.84,0,0,0-.37,4.51c0,1.38.14,3.14-.94,3.83-1.33.84-2.42-.78-3.52-1.5-2.32-1.5-3.85-1.54-5.77.37-.85.85-1.39.45-2,0-1.38-.92-2.75-1.85-4.08-2.84-2.73-2-5.33-4.1-4.62-8.08.16-.92.41-1.83.56-2.76.6-3.76,2-7.46,1.44-11.32a5.23,5.23,0,0,1,.74-4.09c1.42-1.94,1.32-3.75.12-5.81-1.67-2.87-1.73-5.59.84-8.26,4.37-4.55,8.56-9.28,13-13.81,5.31-5.47,10.72-10.89,15.62-16.78a181.49,181.49,0,0,0,13.63-18.87c2.88-4.56,5.64-9.21,8.37-13.87a64.52,64.52,0,0,0,3.53-7.3,114.68,114.68,0,0,0,3.85-11.44c1.35-4.46,2.88-8.85,3.47-13.5,0-.33.31-.89.5-.9,1.82-.14,2-1.75,2.35-2.88,1.37-3.85,4.23-6.47,7.07-9.12a154.45,154.45,0,0,1,14.71-11.68c3.56-2.59,7.18-5.13,10.86-7.48,6.5-4.14,13.4-7.64,20.22-11.24,5.08-2.69,10.39-5.06,14.8-8.91a5.68,5.68,0,0,0,2.24-4.25c0-.87-.31-1.44-1.27-1.31-2.69.38-5.36.84-8.08,1.08a7.87,7.87,0,0,0-4.1,1.23c-3.28,2.49-7.41,2.65-11.11,4a19.18,19.18,0,0,1-5.38,1.32c-1.49.08-2.45,2.24-4.41,1.49-.41-.15-.67.37-.6.92.15,1-.66,1.08-1.35,1.32a4.77,4.77,0,0,1-3-.33c-.91-.24-1.83-.07-2,.72-.73,2.83-3.15,1.94-4.93,2.34-.92.2-1.79-.93-3.2-.15a4.21,4.21,0,0,1,1.93-2c8.75-5.89,18.49-9.31,28.78-11.23A108.27,108.27,0,0,0,337,4.37c.34-.11.74-.15.81-.59s-.33-.78-.73-.93a30.36,30.36,0,0,0-4.4-1.76c-8.8-1.92-17.62-.85-26.43-.18-4.36.32-8.28,2.19-12.35,3.55A191.07,191.07,0,0,0,275,11.89c-3.1,1.43-5.82,3.53-9,4.87a77.07,77.07,0,0,0-15.85,9.18c-5.08,3.77-10.19,7.5-15.44,11-2.43,1.62-4.82,4.06-7.67,4.14-3.27.1-5,2.17-7.16,3.7-1.3.9-2.52,1.92-3.75,2.93a265.52,265.52,0,0,0-21,18.68c-2.95,2.94-5.48,6.27-8.19,9.41a99.49,99.49,0,0,0-6.39,8.48c-2.78,4-5.69,7.92-8.3,12-4.69,7.42-9.23,14.9-12.52,23.09-.49,1.23-.32,2.51-1,3.72a42.12,42.12,0,0,0-5.47,19.28,16.37,16.37,0,0,1-3.17,9.68c-2.84,3.77-3.69,8-3.82,12.41q-.32,10.39-.84,20.79c-.21,4.34.46,8.66.88,12.95.37,3.68.85,7.61,4.27,10.05a5.15,5.15,0,0,1,2.18,5.07,10,10,0,0,0-.06,1.73c.44,3.94.88,7.72,5.81,8.95,3.28.82,6.48,2.23,5.7,6.76a3,3,0,0,0,.35,1.46A67.42,67.42,0,0,0,173.86,248c5.13,6.69,10.8,12.93,16.55,19.1s12,11.91,19.64,15.82c2,1,3.59,2.08,4.14,4.32.13.52.87,1,.3,1.55s-1.08.1-1.62-.07l-10.55-3.15c-6.62-2-13.21-4.1-19.64-6.63-10.56-4.14-20.3-9.95-30.34-15.14-4.2-2.16-8.21-4.9-13.26-4.77a1.61,1.61,0,0,1-1.13-.51c-1.78-2.13-4.38-1.87-6.63-1.9-1.67,0-3.62-.16-5.21,1-2.83,2.07-6.12,3.61-7.85,6.92-.12.22-.45.5-.65.48-1.71-.16-2.51,1.22-3.65,2-2.54,1.82-4.66,4.11-7,6.16-7.43,6.52-14.91,13-22.94,18.77-4.44,3.2-8.56,6.82-12.7,10.41s-8.8,7.23-13.2,10.84a275.12,275.12,0,0,0-22,19.8,7.4,7.4,0,0,0-2.3,4.74,41.77,41.77,0,0,0,.87,13.56,2.4,2.4,0,0,1-1.22,3.06c-1.85,1.11-3.59,2.42-5.43,3.57-3.55,2.2-7.26,4.17-10.67,6.57-4.13,2.91-8,6.21-12,9.27a12.9,12.9,0,0,0-5.23,9.08A37,37,0,0,0,0,387.57a91.77,91.77,0,0,0,3.3,24.83C5.4,420,8,427.4,10.55,434.85a47.44,47.44,0,0,0,7,13.32c1.19,1.56,3.27,2.14,4.44,1A5.59,5.59,0,0,0,24,445c-.14-5.78-1.26-11.45-1.88-17.18a54.07,54.07,0,0,1-.5-10.56,60.16,60.16,0,0,0,.56-7.93c-.19-5.07,1.46-9.77,2.12-14.65a7.26,7.26,0,0,1,3.58-5.39,109.48,109.48,0,0,0,12-9.22c2.13-1.78,2.07-1.75,3,.72,1.57,4,3.16,7.92,4.87,11.82A21.29,21.29,0,0,0,52.56,400c1,.88,2.39,2,3.59.92s2.15-2.72,1.33-4.42c-1.64-3.45-1.63-7.26-2.53-10.88-1-4-1-8.15-1.69-12.2a4.4,4.4,0,0,1,2.13-5.1C59,366,62.53,363.42,66.14,361A345.06,345.06,0,0,0,95,339.37c6.75-5.55,13.55-11.06,20.46-16.4A127.87,127.87,0,0,1,127,315c2.51-1.53,5.11-3.32,8.48-2.23a2.4,2.4,0,0,0,3-1.22c.61-1.81,1.21-1,2.08-.36,3.62,2.5,7.23,5,10.9,7.4,4.23,2.75,8.49,5.45,12.81,8.05,1.8,1.09,1.26,1.85,0,2.8-2.66,2-5.42,3.85-7.92,6-10.76,9.28-22,18-32.81,27.18-3.69,3.13-7.83,5.77-10.92,9.56a5,5,0,0,1-2.37,1.78,14.15,14.15,0,0,0-4.1,2.38c-3.08,2.25-6.1,4.6-9.26,6.77C89.31,388.29,81.64,393.43,74,398.6a5.81,5.81,0,0,0-2.8,3.17,1.12,1.12,0,0,1-1.17,1c-2.19.24-5,2.94-5.65,5-1.45,4.82-1.73,9.84-2.29,14.77-.71,6.38.29,12.82,1,19.17s1.28,12.61,2.08,18.9q1.17,8.5,3.18,16.87a12.52,12.52,0,0,0,2.5,5.7,2,2,0,0,0,2.79.44,1.2,1.2,0,0,0,.21-.17,5.69,5.69,0,0,0,2.27-4.71c-.2-3.37-.43-6.75-.42-10.12a103,103,0,0,1,3.42-27.35c.88-3.12.58-6.56,2.09-9.45a103.81,103.81,0,0,0,4.55-10.51c.6-1.54.63-3.46,2.21-4.56a53.75,53.75,0,0,0,6-5.27,66.3,66.3,0,0,1,9.54-8,144.14,144.14,0,0,0,12.28-9.18c2.82-2.3,5.13-5.72,9.32-6,.15,0,.34-.44.38-.7.19-1.25,1.19-1.7,2.1-2.3,4-2.64,8.6-4.42,12.42-7.43,1.35-1.07,2.53-2.45,4-3.2a131.37,131.37,0,0,0,15.5-9.41c8.19-5.6,15.94-11.85,24.91-16.3a6,6,0,0,1,6.29.15c8.57,4.9,17.2,9.68,26.15,13.86,1.63.76,3.25,1.56,4.93,2.38-.68.79-1.38.57-2,.63-7.2.66-13.53,8.31-12.89,15.45.41,4.53.62,8.95-2.29,13-2,2.82-2.64,6.36-3.61,9.69l-1.09,7.38c-5,5.6-6.46,12.56-7.7,19.61-1.12,6.35-.59,12.82-1.26,19.21a2.26,2.26,0,0,0,0,.82v.46a18,18,0,0,0,1.64,7.4c.19.57.59,1.11.83,1.79.84,2.36,3.14,4,3.1,6.78a65,65,0,0,0,2,15.39c1.13,5,2.81,9.75,4.36,14.58a107.07,107.07,0,0,0,8,18.62,61.68,61.68,0,0,0,13.4,17.11c3.32,2.9,6.78,6,11.4,6.1,2.67.08,5.41,2,8.29-1.08,5.25-5.64,8.93-11.8,10.39-19.39.84-4.32,0-8.59.18-12.88s-1.7-7.85-2.81-11.72A120,120,0,0,0,238.9,464c-2-3.29-2.83-6-2.38-9.73s-.52-7.45-.69-11.19c-.46-10.41.6-20.81.44-31.22V408.4a2.66,2.66,0,0,1,2.2-2.77,22,22,0,0,1,4.72-.47,89,89,0,0,1,12,0c4,.17,8,.76,11.9.22,4.68-.67,9.42-.83,14.07-1.75,3.5-.7,7.22-.8,10.48-2.07,4.27-1.66,8.23-4.13,12.23-6.43,3.29-1.89,6.49-4,9.64-6.1s6.35-3.49,10.39-2.6a54.92,54.92,0,0,0,11.7,1.51,128.25,128.25,0,0,1,14.25,1.13,167.2,167.2,0,0,0,24,.65c9-.27,17.83-2.31,26.73-3.64,4.71-.7,9.48-1.9,13.35,2.3.28.3.77.37,1.14.6,1.87,1.15,4.27,1.11,6,2.33,2.93,2.05,6.11,2.66,9.56,2.86A79,79,0,0,1,442,395.39a175.39,175.39,0,0,0,28.06,3.48c5.29.22,10.6-.48,15.9,0,1.94.17,3.91-.38,5.81-.25,3.74.25,7.46.76,11.21.74a15.22,15.22,0,0,1,4,.82c1,.28,1.36.91,1.61,2,1.15,5,1,10.17,2.53,15.1s1.79,9.92,3.47,14.71a17,17,0,0,1,1,5.66c0,3.9-.31,7.88,1.06,11.71a3.78,3.78,0,0,1-.5,3.31c-2.85,4.65-6.66,8.65-8.82,13.78-5,11.89-7.84,24.09-6.17,37.06.64,4.93,1.46,9.86,3.84,14.32a23.54,23.54,0,0,0,9.08,9.71,14.66,14.66,0,0,0,12.1,1.7c3.85-1.22,8.13-1.78,11.43-5,1.36-1.33,4.07-1.32,4.31-4.06,4.58-3.79,6.9-9.21,9.51-14.22,3.81-7.3,7-15,8-23.31.67-5.52,1.26-11.14.34-16.78a9.08,9.08,0,0,1,1.72-7.58c1.53-1.78,2.28-4,3.55-5.84a5,5,0,0,0,.49-4.39c-2-5.93-2.09-12.16-3.18-18.22a59.9,59.9,0,0,0-5.48-16.64,9.62,9.62,0,0,0-4.92-4.93,4.8,4.8,0,0,1-2.88-3.23,12.52,12.52,0,0,1-.73-5.32c.29-3-.85-5.43-2.47-7.82-1.89-2.79-3.66-5.67-5.42-8.55a4.47,4.47,0,0,1-.35-3.74c.72-2.49.86-5.09-.59-7.34-2.31-3.6-4.35-7.49-8.66-9.32-.74-.32-2.07-.7-2.09-1.65s1.41-1,2.16-1.48,1.51-.84,2.26-1.28c5.65-3.28,10.92-7.23,16.89-10,2.21-1,4.15-2.77,7-2.36,4.68.68,8.13,3.69,11.76,6.16,5.59,3.8,10.63,8.43,16.27,12.14,9.22,6.08,17.89,12.91,27,19.15,5.87,4,11.61,8.26,17.23,12.64,1.74,1.36,3.68,2.81,4,5.51.17,1.33,1,3.14,3.16,1.75.69-.45,1.22.14,1.72.54,4.22,3.35,8.37,6.8,12.7,10,2.69,2,4.76,4.29,5.39,7.68.33,1.76.67,3.53,1,5.3a116,116,0,0,1,2.4,18,139.69,139.69,0,0,1-.51,18.41c-.43,4.09-.4,8.21-1.14,12.28-.51,2.82-1.23,5.66-.95,8.58a4.08,4.08,0,0,0,2.42,3.7c1.85.67,2.54-1.1,3.15-2.27a41.73,41.73,0,0,0,2.64-5.42c1.33-3.74,2.23-7.58,3.31-11.38,2.42-8.53,4-17.25,5.59-25.94,1.21-6.49,2.22-13,2.86-19.63.5-5.11,1-10.19.25-15.3a5.92,5.92,0,0,0-2-3.71c-2.85-2.5-6.24-4.26-9.06-6.86-2.26-2.1-5-3.66-7.5-5.51-2.07-1.53-4.1-3.12-6.12-4.7-.77-.6-1.09-1.26-.38-2.21,4.47-5.93,8.9-11.89,12.14-18.63.43-.91.93-1.09,1.83-.38,8.22,6.49,16.58,12.79,23.83,20.43a61.27,61.27,0,0,0,9.76,8.21c.8.55,1.68,1.23,1.79,2.1.29,2.23,1.18,4.31,1.5,6.52a80.84,80.84,0,0,1,.41,18.13c-.19,2.38-.15,4.8-.52,7.11-1.59,10-3.39,19.86-5.24,29.76-.29,1.57-.14,2.62,1.23,3.51s3,1.44,4.57.19a12.9,12.9,0,0,0,3.27-4,132.66,132.66,0,0,0,7.32-16c2.94-7.51,5.19-15.23,7.51-22.92,1.88-6.22,2.62-12.68,3.43-19.09C725.76,395.47,726.43,390.87,725.23,386.29Z"/><path class="cls-2" d="M982.06,164.39q35.4,0,52.06,11.05t16.67,32.17a37.75,37.75,0,0,1-1.16,9.64,41,41,0,0,1-3,8,35,35,0,0,1-4.15,6.41,39.26,39.26,0,0,1-4.77,4.88,43.47,43.47,0,0,1-12.93,7.81v1.83a50.09,50.09,0,0,1,20.38,6.84,45,45,0,0,1,7.45,5.8,37.07,37.07,0,0,1,6.53,8.42,47.65,47.65,0,0,1,4.64,11.48,57.06,57.06,0,0,1,1.77,14.95,55.48,55.48,0,0,1-4.64,23.07,45.78,45.78,0,0,1-13.8,17.4q-9.15,7.14-22.82,10.92t-31.74,3.79q-16.72,0-27.22-2.08t-16.36-6a20.42,20.42,0,0,1-8-9.58,35.69,35.69,0,0,1-2.13-12.7V184.9q0-6.72-9.28-6.72a48.26,48.26,0,0,0-13.61,2,49.48,49.48,0,0,0-12.45,5.5,32.33,32.33,0,0,0-9.1,8.3,17.26,17.26,0,0,0-3.54,10.44,15.35,15.35,0,0,0,1,6.22,9.78,9.78,0,0,0,2.38,3.48,6.45,6.45,0,0,0,2.75,1.47,11.37,11.37,0,0,0,2,.3,10.53,10.53,0,0,0,5-1,30.65,30.65,0,0,0,3.54-2.19l3-2.2a5.27,5.27,0,0,1,3.23-1,8.4,8.4,0,0,1,3.12.67,8.83,8.83,0,0,1,3,2.14,12.31,12.31,0,0,1,2.38,3.84,15.51,15.51,0,0,1,1,5.8,17.63,17.63,0,0,1-1.9,8.43,18.73,18.73,0,0,1-4.88,5.92,20.55,20.55,0,0,1-6.84,3.54,27.29,27.29,0,0,1-18.18-.86,23.41,23.41,0,0,1-8-5.55,23.83,23.83,0,0,1-5-8.3A29.48,29.48,0,0,1,876.8,215a40.41,40.41,0,0,1,3.78-17.88,39.34,39.34,0,0,1,10.68-13.37,60.57,60.57,0,0,1,16.54-9.33,119.72,119.72,0,0,1,21.36-5.92,216,216,0,0,1,25.09-3.12Q967.66,164.38,982.06,164.39Zm-2.44,160.76a24.37,24.37,0,0,0,.55,5.31,9.45,9.45,0,0,0,2.2,4.34,11.56,11.56,0,0,0,4.51,2.93,23.14,23.14,0,0,0,19.84-2.75,35.87,35.87,0,0,0,9.64-9.89,49.16,49.16,0,0,0,6.23-13.55,53.35,53.35,0,0,0,2.2-15,58.72,58.72,0,0,0-3-19.59,41.14,41.14,0,0,0-8.36-14.39,37.78,37.78,0,0,0-12.69-9,45.28,45.28,0,0,0-15.87-3.72l2.44-6.23a27,27,0,0,0,10.25-1.46,20.24,20.24,0,0,0,8.61-6,31,31,0,0,0,5.92-11.59,64.23,64.23,0,0,0,2.2-18.25,45.88,45.88,0,0,0-1.83-13.43,33.67,33.67,0,0,0-4.83-10.07,21.58,21.58,0,0,0-7-6.29,16.63,16.63,0,0,0-8.12-2.19,19.55,19.55,0,0,0-4.94.61,10.58,10.58,0,0,0-4.16,2.07,10.11,10.11,0,0,0-2.8,3.85,14.6,14.6,0,0,0-1,5.92Z"/><path class="cls-2" d="M1195.07,297.73c0,.79,0,1.58.13,2.38a8,8,0,0,0,.61,2.44,4.47,4.47,0,0,0,1.46,1.9,4.73,4.73,0,0,0,2.81.73,6,6,0,0,0,4.15-1.65q1.83-1.65,3.42-3.36l2.93,2.57q-2.14,2.94-4.58,5.67a40.25,40.25,0,0,1-6.65,5.92,38.55,38.55,0,0,1-8.91,4.7,32.32,32.32,0,0,1-11.36,1.9,28.2,28.2,0,0,1-9.34-1.41,20.91,20.91,0,0,1-6.71-3.78,15.08,15.08,0,0,1-4.09-5.62,17.73,17.73,0,0,1-1.34-6.89v-5.5a94.66,94.66,0,0,1-12.82,11.6c-2,1.46-4,2.89-6.23,4.27a58.55,58.55,0,0,1-6.83,3.72,42.42,42.42,0,0,1-7.33,2.63,30.64,30.64,0,0,1-7.56,1,27.62,27.62,0,0,1-12.52-2.63,23.49,23.49,0,0,1-8.36-6.9,28.78,28.78,0,0,1-4.64-9.64,41.08,41.08,0,0,1-1.46-10.74V215.49a16.56,16.56,0,0,0-.12-2.38,8.55,8.55,0,0,0-.61-2.45,4.1,4.1,0,0,0-4.28-2.62,6.1,6.1,0,0,0-4.09,1.65,30.37,30.37,0,0,0-3.35,3.36l-3-2.57a71.23,71.23,0,0,1,4.57-5.67,39,39,0,0,1,6.66-5.92,37.29,37.29,0,0,1,9-4.7,31.49,31.49,0,0,1,11.29-1.9,28.29,28.29,0,0,1,9.4,1.41,19.31,19.31,0,0,1,6.71,3.78,15,15,0,0,1,4,5.62,17.66,17.66,0,0,1,1.34,6.89v81.55a12.11,12.11,0,0,0,.55,3.48,11.85,11.85,0,0,0,1.59,3.23,8.21,8.21,0,0,0,2.63,2.38,7.56,7.56,0,0,0,3.78.92,15.37,15.37,0,0,0,7.08-1.83,34.09,34.09,0,0,0,6.47-4.35,48.26,48.26,0,0,0,5.07-4.94q2.13-2.43,3.11-3.65V215.49a16.56,16.56,0,0,0-.12-2.38,8.55,8.55,0,0,0-.61-2.45,4.1,4.1,0,0,0-4.28-2.62,6.1,6.1,0,0,0-4.09,1.65,30.37,30.37,0,0,0-3.35,3.36l-3-2.57a71.23,71.23,0,0,1,4.57-5.67,39,39,0,0,1,6.66-5.92,37.29,37.29,0,0,1,9-4.7,31.49,31.49,0,0,1,11.29-1.9,28.29,28.29,0,0,1,9.4,1.41,19.65,19.65,0,0,1,6.71,3.78,15.27,15.27,0,0,1,4,5.62,17.84,17.84,0,0,1,1.34,6.89Z"/><path class="cls-2" d="M1266.73,220.05v90.21q0,6.48,2.44,9a9,9,0,0,0,6.71,2.51,9.76,9.76,0,0,0,5.86-1.84,21.4,21.4,0,0,0,4.4-4.15,26,26,0,0,0,3.78-6l3.79,1.71q-1.83,3.9-4.34,8.55a33.9,33.9,0,0,1-17.09,15.26Q1266,338,1256.47,338a33.69,33.69,0,0,1-10.31-1.59,24.21,24.21,0,0,1-8.79-5,25,25,0,0,1-6.16-8.55,29.78,29.78,0,0,1-2.32-12.32V220.05h-13.68v-8.79a37.21,37.21,0,0,0,9.53-1.77,47.52,47.52,0,0,0,12.51-5.92,49.69,49.69,0,0,0,11.9-11.11,42.29,42.29,0,0,0,7.81-17.21h9.77v36h19.9q9.76,0,9.76-3.29a1.63,1.63,0,0,0-1.22-1.65c-.81-.29-1.73-.65-2.74-1.1a9.18,9.18,0,0,1-2.75-1.89,5.56,5.56,0,0,1-1.22-4,6.89,6.89,0,0,1,2.13-5.37,7.9,7.9,0,0,1,5.56-2,7.77,7.77,0,0,1,3.84.91,8.26,8.26,0,0,1,2.75,2.44,10.92,10.92,0,0,1,1.65,3.48,14.77,14.77,0,0,1,.55,3.91q0,7.92-4.58,12.63t-14.71,4.7Z"/><path class="cls-2" d="M1352.79,330.4a16.55,16.55,0,0,1-.55,3.84,9.11,9.11,0,0,1-2.56,4.27,15.86,15.86,0,0,1-5.8,3.42,30,30,0,0,1-10.26,1.41,27.08,27.08,0,0,1-10.13-1.53,14.69,14.69,0,0,1-5.49-3.6,9.17,9.17,0,0,1-2.26-4.27,19.13,19.13,0,0,1-.43-3.54V236.16a11.45,11.45,0,0,0-1.64-6.17c-1.1-1.75-3-2.62-5.56-2.62a8,8,0,0,0-3.54.73,19,19,0,0,0-3.17,2.08l-2.57-3.07a68.57,68.57,0,0,1,6.29-4.57,48.25,48.25,0,0,1,7.51-4,53.7,53.7,0,0,1,8.66-2.81,42.8,42.8,0,0,1,9.77-1.1q7.93,0,12.33,2.14a15.86,15.86,0,0,1,6.47,5.25,15.11,15.11,0,0,1,2.5,6.65,52,52,0,0,1,.43,6.23Zm-41.26-143.56a14.79,14.79,0,0,1,1.52-6.53,17,17,0,0,1,4.28-5.43,21.2,21.2,0,0,1,6.35-3.66,23.26,23.26,0,0,1,15.62,0,20.67,20.67,0,0,1,6.29,3.66,17.42,17.42,0,0,1,4.21,5.43,14.79,14.79,0,0,1,1.52,6.53,14.48,14.48,0,0,1-1.52,6.59,16.59,16.59,0,0,1-4.21,5.31,21,21,0,0,1-6.29,3.6,21.81,21.81,0,0,1-7.75,1.35,22.24,22.24,0,0,1-7.87-1.35,21.72,21.72,0,0,1-6.35-3.6,16,16,0,0,1-4.28-5.31A14.48,14.48,0,0,1,1311.53,186.84Z"/><path class="cls-2" d="M1421.27,235.81q4.27-5.75,9.16-11.66a83.35,83.35,0,0,1,10.49-10.68,53.27,53.27,0,0,1,12.21-7.81,33.78,33.78,0,0,1,14.41-3.06,22.31,22.31,0,0,1,11.59,2.75,25.09,25.09,0,0,1,7.51,6.59,24.54,24.54,0,0,1,4,8,27,27,0,0,1,1.16,7.08,47.35,47.35,0,0,1-1.41,11.17,41.61,41.61,0,0,1-4.76,11.47,50.91,50.91,0,0,1-9,11,61.55,61.55,0,0,1-14.16,9.7,420,420,0,0,0,22.34,41.81A210.43,210.43,0,0,0,1505.74,341q10.08,11.29,19.35,16.66t17.7,5.37a13.13,13.13,0,0,0,2.93-.36,22.75,22.75,0,0,0,2.69-.86,25.92,25.92,0,0,0,2.81-1.22l2.31,4.27c-2.19,1.23-4.43,2.38-6.71,3.48a47.15,47.15,0,0,1-7.81,2.87,74.06,74.06,0,0,1-10.13,2,113.68,113.68,0,0,1-13.68.73,60.27,60.27,0,0,1-14.22-1.71,49.09,49.09,0,0,1-14.1-6.1,79.92,79.92,0,0,1-14.34-11.72,130.91,130.91,0,0,1-14.89-18.56A265.4,265.4,0,0,1,1442,309q-8.05-15.51-16.72-36.26a127.59,127.59,0,0,0,18.43-16,79.31,79.31,0,0,0,10.13-13.37,34.62,34.62,0,0,0,4.27-10.62,45.06,45.06,0,0,0,.86-7.93q0-.48-.12-1.65a5.33,5.33,0,0,0-.8-2.26,6.26,6.26,0,0,0-2-2,6.38,6.38,0,0,0-3.6-.85q-4.52,0-9.15,3.84a54,54,0,0,0-8.86,9.52,93.8,93.8,0,0,0-7.63,12.21c-2.27,4.35-4.15,8.32-5.61,11.9v63a15.69,15.69,0,0,1-.55,3.78,8.87,8.87,0,0,1-2.56,4.15,16.42,16.42,0,0,1-5.86,3.36,30.81,30.81,0,0,1-10.32,1.41,27.08,27.08,0,0,1-10.13-1.53,14.4,14.4,0,0,1-5.43-3.6,9.4,9.4,0,0,1-2.2-4.27,20.14,20.14,0,0,1-.43-3.54V160.86a11.45,11.45,0,0,0-1.64-6.17q-1.65-2.62-5.56-2.62a8.73,8.73,0,0,0-3.6.67,15.14,15.14,0,0,0-3.23,2l-2.45-2.93a77.28,77.28,0,0,1,6.23-4.58,44.7,44.7,0,0,1,7.51-4,54.81,54.81,0,0,1,8.73-2.81,41.68,41.68,0,0,1,9.76-1.1q7.93,0,12.33,2.14a15.78,15.78,0,0,1,6.47,5.25,14.9,14.9,0,0,1,2.5,6.59,50.73,50.73,0,0,1,.43,6.16Z"/><path class="cls-2" d="M1659.31,330.85q0,9.4-5,13.67t-15.07,4.28q-10.26,0-15.14-4.28t-4.88-13.67v-146q0-6.72-9.28-6.72a48.62,48.62,0,0,0-13.61,2,50.2,50.2,0,0,0-12.45,5.5,32.34,32.34,0,0,0-9.1,8.3,17.28,17.28,0,0,0-3.54,10.44,15.35,15.35,0,0,0,1,6.22,9.69,9.69,0,0,0,2.38,3.48,6.34,6.34,0,0,0,2.75,1.47,11.37,11.37,0,0,0,2,.3,10.53,10.53,0,0,0,5-1,29.33,29.33,0,0,0,3.54-2.19l3-2.2a5.33,5.33,0,0,1,3.23-1,8.6,8.6,0,0,1,3.12.67,9,9,0,0,1,3,2.14,12.54,12.54,0,0,1,2.38,3.84,15.51,15.51,0,0,1,1,5.8,17.72,17.72,0,0,1-1.9,8.43,18.62,18.62,0,0,1-4.88,5.92,20.19,20.19,0,0,1-6.84,3.54,26.27,26.27,0,0,1-7.62,1.16,26.6,26.6,0,0,1-10.57-2,23.14,23.14,0,0,1-8-5.55,23.74,23.74,0,0,1-5-8.3,29.63,29.63,0,0,1-1.7-10.14,40.41,40.41,0,0,1,3.78-17.88,39.43,39.43,0,0,1,10.68-13.37,60.57,60.57,0,0,1,16.54-9.33,121.42,121.42,0,0,1,21.36-5.92,216,216,0,0,1,25.09-3.12q13.37-.9,27.77-.91,34.9,0,52.86,13.36t17.94,38.4a66.51,66.51,0,0,1-3.23,21.6,53.47,53.47,0,0,1-8.67,16.18,46.18,46.18,0,0,1-12.51,11,53,53,0,0,1-29.85,7.51,46.88,46.88,0,0,1-14.09-2.91l1.71-5.25q9.15,2.82,15.07.19a19,19,0,0,0,9.28-9.34,52.59,52.59,0,0,0,4.64-17,181.19,181.19,0,0,0,1.28-22.58,68.38,68.38,0,0,0-2-16.91,45.77,45.77,0,0,0-5.31-13,27.12,27.12,0,0,0-7.81-8.36,16.65,16.65,0,0,0-9.46-3,15.32,15.32,0,0,0-6.41,1.16,10.21,10.21,0,0,0-5.86,6.71,19.4,19.4,0,0,0-.67,3.85Z"/><path class="cls-2" d="M1857.67,297.73a16.63,16.63,0,0,0,.12,2.38,8.33,8.33,0,0,0,.61,2.44,4.64,4.64,0,0,0,1.47,1.9,4.73,4.73,0,0,0,2.81.73,6,6,0,0,0,4.15-1.65q1.83-1.65,3.41-3.36l2.93,2.57a72.62,72.62,0,0,1-4.57,5.67,39.91,39.91,0,0,1-6.66,5.92A38.35,38.35,0,0,1,1853,319a32.26,32.26,0,0,1-11.35,1.9,28.2,28.2,0,0,1-9.34-1.41,20.91,20.91,0,0,1-6.71-3.78,15,15,0,0,1-4.09-5.62,17.73,17.73,0,0,1-1.34-6.89v-5.5a95.33,95.33,0,0,1-12.82,11.6c-2,1.46-4,2.89-6.23,4.27a58.55,58.55,0,0,1-6.83,3.72A43.27,43.27,0,0,1,1787,320a30.66,30.66,0,0,1-7.57,1,27.58,27.58,0,0,1-12.51-2.63,23.49,23.49,0,0,1-8.36-6.9,28.78,28.78,0,0,1-4.64-9.64,41.08,41.08,0,0,1-1.46-10.74V215.49a15.3,15.3,0,0,0-.13-2.38,7.94,7.94,0,0,0-.61-2.45,4.4,4.4,0,0,0-1.46-1.89,4.57,4.57,0,0,0-2.81-.73,6.08,6.08,0,0,0-4.07,1.69,30.37,30.37,0,0,0-3.35,3.36l-3.06-2.57a71.35,71.35,0,0,1,4.58-5.67,39.36,39.36,0,0,1,6.65-5.92,37.47,37.47,0,0,1,9-4.7,31.49,31.49,0,0,1,11.29-1.9,28.29,28.29,0,0,1,9.4,1.41,19.65,19.65,0,0,1,6.71,3.78,15.27,15.27,0,0,1,4,5.62,17.84,17.84,0,0,1,1.34,6.89v81.55a12.11,12.11,0,0,0,.55,3.48,11.85,11.85,0,0,0,1.59,3.23,8.3,8.3,0,0,0,2.62,2.38,7.59,7.59,0,0,0,3.79.92,15.37,15.37,0,0,0,7.08-1.83,35.18,35.18,0,0,0,6.47-4.34,50.24,50.24,0,0,0,5.06-4.94c1.43-1.63,2.46-2.85,3.12-3.66V215.49a15.3,15.3,0,0,0-.13-2.38,7.94,7.94,0,0,0-.61-2.45,4.4,4.4,0,0,0-1.46-1.89,4.57,4.57,0,0,0-2.81-.73,6.1,6.1,0,0,0-4.09,1.65,32.3,32.3,0,0,0-3.36,3.36l-3-2.57a71.35,71.35,0,0,1,4.58-5.67,39.36,39.36,0,0,1,6.65-5.92,37.47,37.47,0,0,1,9-4.7,31.77,31.77,0,0,1,11.3-1.9,28.29,28.29,0,0,1,9.4,1.41,19.65,19.65,0,0,1,6.71,3.78,15.27,15.27,0,0,1,4,5.62,17.84,17.84,0,0,1,1.34,6.89Z"/><path class="cls-2" d="M1927.5,339.88a16.05,16.05,0,0,1-.55,3.78,8.8,8.8,0,0,1-2.57,4.15,16,16,0,0,1-5.86,3.36,30.53,30.53,0,0,1-10.31,1.41,27.08,27.08,0,0,1-10.13-1.53,14.13,14.13,0,0,1-5.44-3.6,9.29,9.29,0,0,1-2.19-4.27,19.13,19.13,0,0,1-.43-3.54V182.17a11.37,11.37,0,0,0-1.65-6.17c-1.1-1.74-2.95-2.62-5.55-2.62a8.89,8.89,0,0,0-3.6.67,15.62,15.62,0,0,0-3.24,2l-2.44-2.93a77.28,77.28,0,0,1,6.23-4.58,46.1,46.1,0,0,1,7.5-4,56.92,56.92,0,0,1,8.73-2.81,42.8,42.8,0,0,1,9.77-1.1q7.93,0,12.33,2.14a15.78,15.78,0,0,1,6.47,5.25,15.12,15.12,0,0,1,2.5,6.59,50.73,50.73,0,0,1,.43,6.16Z"/><path class="cls-2" d="M1955,215.24a20.49,20.49,0,0,0-2.38-7.57c-1.1-1.78-3-2.68-5.55-2.68a8.26,8.26,0,0,0-3.6.73,17.51,17.51,0,0,0-3.24,2.08l-2.44-3.06a68.57,68.57,0,0,1,6.29-4.57,48.6,48.6,0,0,1,7.5-4,54.14,54.14,0,0,1,8.67-2.81,42.8,42.8,0,0,1,9.77-1.1q7.32,0,11.84,2.51A20.94,20.94,0,0,1,1989,201a24.26,24.26,0,0,1,3.72,8,71.84,71.84,0,0,1,1.59,7.69q4.51,37,10.13,56t13.31,19q4.26,0,8.24-4.64a41.91,41.91,0,0,0,7-12.69,104.18,104.18,0,0,0,4.82-18.8,135.68,135.68,0,0,0,1.84-23,71.37,71.37,0,0,0-1.1-13.61,70.07,70.07,0,0,0-2.44-9.34c-.9-2.52-1.71-4.62-2.45-6.29a11.43,11.43,0,0,1-1.09-4.45,3.82,3.82,0,0,1,1.46-3,13.79,13.79,0,0,1,3.48-2.08,18.15,18.15,0,0,1,4.15-1.22,22.58,22.58,0,0,1,3.48-.37,10.2,10.2,0,0,1,5.13,1,6.93,6.93,0,0,1,2.56,3.78,43.48,43.48,0,0,1,1.53,9.34q.42,5.8.42,12.39a180.06,180.06,0,0,1-1.28,20.63,200.85,200.85,0,0,1-3.91,22.59,169.93,169.93,0,0,1-6.65,22,91.93,91.93,0,0,1-9.58,18.86A50,50,0,0,1,2020.75,316a26.52,26.52,0,0,1-15.69,5,27.61,27.61,0,0,1-17.58-5.86,49.73,49.73,0,0,1-12.63-15.26,103.72,103.72,0,0,1-8.61-21.12,230.43,230.43,0,0,1-5.55-23.5q-2.14-11.78-3.42-22.34T1955,215.24Z"/><path class="cls-2" d="M2116.46,330.4a16.55,16.55,0,0,1-.55,3.84,9.11,9.11,0,0,1-2.56,4.27,15.64,15.64,0,0,1-5.8,3.42,30,30,0,0,1-10.26,1.41,27.08,27.08,0,0,1-10.13-1.53,14.69,14.69,0,0,1-5.49-3.6,9.17,9.17,0,0,1-2.26-4.27,20,20,0,0,1-.43-3.54V236.16a11.28,11.28,0,0,0-1.64-6.17c-1.1-1.74-3-2.62-5.56-2.62a8,8,0,0,0-3.54.73,20.13,20.13,0,0,0-3.17,2.08l-2.56-3.06a67.09,67.09,0,0,1,6.28-4.57,48.25,48.25,0,0,1,7.51-4,53.81,53.81,0,0,1,8.67-2.81,42.77,42.77,0,0,1,9.76-1.1q7.93,0,12.33,2.14a15.78,15.78,0,0,1,6.47,5.25,15.11,15.11,0,0,1,2.5,6.65,52,52,0,0,1,.43,6.23ZM2075.2,186.84a14.67,14.67,0,0,1,1.53-6.53,16.61,16.61,0,0,1,4.27-5.43,21.2,21.2,0,0,1,6.35-3.66,23.26,23.26,0,0,1,15.62,0,20.27,20.27,0,0,1,6.29,3.66,17.13,17.13,0,0,1,4.21,5.43,14.67,14.67,0,0,1,1.53,6.53,14.46,14.46,0,0,1-1.53,6.59,16.46,16.46,0,0,1-4.21,5.31,20.74,20.74,0,0,1-6.29,3.6,21.81,21.81,0,0,1-7.75,1.35,22.24,22.24,0,0,1-7.87-1.35,21.72,21.72,0,0,1-6.35-3.6,16,16,0,0,1-4.27-5.31A14.46,14.46,0,0,1,2075.2,186.84Z"/><path class="cls-2" d="M2186.37,202a18.7,18.7,0,0,0-5.31.73,12,12,0,0,0-4.46,2.38,11.32,11.32,0,0,0-3,4.15,14.83,14.83,0,0,0-1.1,5.92,15.84,15.84,0,0,0,3.48,9.46,82.05,82.05,0,0,0,8.67,9.77q5.19,5.07,11.23,10.5a124.06,124.06,0,0,1,11.23,11.47,64.57,64.57,0,0,1,8.66,12.88,31.77,31.77,0,0,1,3.48,14.65,38.4,38.4,0,0,1-3,15.62,31.71,31.71,0,0,1-8.54,11.6,38.13,38.13,0,0,1-13.43,7.26,57.49,57.49,0,0,1-17.52,2.51,46,46,0,0,1-15.26-2.39,54.67,54.67,0,0,1-12.13-5.84,53,53,0,0,1-9.1-7.39,49.08,49.08,0,0,1-5.86-7.08l4.28-3a40.82,40.82,0,0,0,4,4,38.55,38.55,0,0,0,5.43,4,31.19,31.19,0,0,0,6.41,3,21.11,21.11,0,0,0,7,1.16q8.79,0,14.41-4.21t5.61-12.51a18.23,18.23,0,0,0-3.05-9.58,75.47,75.47,0,0,0-7.69-10.2q-4.64-5.23-10-10.86a147.21,147.21,0,0,1-10-11.6,68.58,68.58,0,0,1-7.69-12.33,30.06,30.06,0,0,1-3-13.18,27.78,27.78,0,0,1,3.11-13.43,28.66,28.66,0,0,1,8.3-9.52,37.52,37.52,0,0,1,11.84-5.67,49.86,49.86,0,0,1,13.74-1.9,70.29,70.29,0,0,1,14.89,1.47,36.63,36.63,0,0,1,11.54,4.45,21.66,21.66,0,0,1,7.44,7.51,20.52,20.52,0,0,1,2.63,10.5,11.74,11.74,0,0,1-3.05,8.06c-2,2.28-4.89,3.41-8.55,3.41q-5.25,0-8-2.25a7.54,7.54,0,0,1-2.74-6.17,5.91,5.91,0,0,1,1.28-4,11.53,11.53,0,0,1,2.87-2.38c1-.61,2-1.14,2.87-1.58a2,2,0,0,0,1.28-1.77q0-3.42-3.66-5.44A19.41,19.41,0,0,0,2186.37,202Z"/></g></g></svg>