<svg xmlns="http://www.w3.org/2000/svg" viewBox="0 0 103 103"><defs><style>.cls-1,.cls-2,.cls-3{fill:none;}.cls-2,.cls-3{stroke:#91b37f;stroke-width:5px;}.cls-3{stroke-linecap:round;stroke-linejoin:round;}</style></defs><g id="Lag_2" data-name="Lag 2"><g id="Lag_1-2" data-name="Lag 1"><g id="Component_9_1" data-name="Component 9 1"><g id="Ellipse_23" data-name="Ellipse 23"><circle class="cls-1" cx="51.5" cy="51.5" r="51.5"/><circle class="cls-2" cx="51.5" cy="51.5" r="49"/></g><path id="Icon_feather-phone" data-name="Icon feather-phone" class="cls-3" d="M74.21,62.82v6.85a4.57,4.57,0,0,1-4.55,4.58,3.24,3.24,0,0,1-.44,0,45.09,45.09,0,0,1-19.7-7,44.55,44.55,0,0,1-13.7-13.7,45.28,45.28,0,0,1-7-19.8A4.56,4.56,0,0,1,33,28.77a2.61,2.61,0,0,1,.4,0H40.2a4.57,4.57,0,0,1,4.57,3.92,29.44,29.44,0,0,0,1.6,6.42,4.55,4.55,0,0,1-1,4.82l-2.9,2.9a36.55,36.55,0,0,0,13.7,13.7l2.9-2.9a4.57,4.57,0,0,1,4.82-1,29.59,29.59,0,0,0,6.42,1.6A4.59,4.59,0,0,1,74.21,62.82Z"/></g></g></g></svg>