<svg xmlns="http://www.w3.org/2000/svg" viewBox="0 0 103 103"><defs><style>.cls-1,.cls-2{fill:none;}.cls-2{stroke:#91b37f;stroke-width:5px;}.cls-3{fill:#91b37f;}</style></defs><g id="Lag_2" data-name="Lag 2"><g id="Lag_1-2" data-name="Lag 1"><g id="Component_12_1" data-name="Component 12 1"><g id="Ellipse_29" data-name="Ellipse 29"><circle class="cls-1" cx="51.5" cy="51.5" r="51.5"/><circle class="cls-2" cx="51.5" cy="51.5" r="49"/></g><path id="Icon_material-local-offer" data-name="Icon material-local-offer" class="cls-3" d="M74.38,51.55,52.5,29.67a4.85,4.85,0,0,0-3.43-1.41h-17a4.88,4.88,0,0,0-4.86,4.86v17a4.84,4.84,0,0,0,1.43,3.45L50.5,75.47a4.81,4.81,0,0,0,3.43,1.41,4.75,4.75,0,0,0,3.43-1.43l17-17A4.75,4.75,0,0,0,75.81,55,4.92,4.92,0,0,0,74.38,51.55ZM35.7,40.42a3.65,3.65,0,1,1,3.65-3.65,3.65,3.65,0,0,1-3.65,3.65Z"/></g></g></g></svg>